<?xml version="1.0" encoding="UTF-8" standalone="no"?>
<svg
   xmlns:dc="http://purl.org/dc/elements/1.1/"
   xmlns:cc="http://creativecommons.org/ns#"
   xmlns:rdf="http://www.w3.org/1999/02/22-rdf-syntax-ns#"
   xmlns:svg="http://www.w3.org/2000/svg"
   xmlns="http://www.w3.org/2000/svg"
   version="1.1"
   id="svg4140"
   viewBox="0 0 506.46113 314.62787"
   height="88.794975mm"
   width="142.93459mm">
  <defs
     id="defs4142" />
  <metadata
     id="metadata4145">
    <rdf:RDF>
      <cc:Work
         rdf:about="">
        <dc:format>image/svg+xml</dc:format>
        <dc:type
           rdf:resource="http://purl.org/dc/dcmitype/StillImage" />
        <dc:title></dc:title>
      </cc:Work>
    </rdf:RDF>
  </metadata>
  <g
     transform="translate(-132.66116,-414.72289)"
     id="layer1">
    <g
       transform="matrix(0.96592583,0.25881905,-0.25881905,0.96592583,121.51391,-167.96565)"
       id="g4731">
      <rect
         style="opacity:1;fill:#ffffff;fill-opacity:1;stroke:#222222;stroke-width:30;stroke-miterlimit:4;stroke-dasharray:none;stroke-opacity:1"
         id="rect4690-0"
         width="242.43661"
         height="242.43661"
         x="418.32617"
         y="500.31812"
         rx="27.274118"
         ry="27.274118" />
      <g
         id="text4727"
         style="font-style:normal;font-variant:normal;font-weight:bold;font-stretch:normal;font-size:100px;line-height:125%;font-family:'Droid Sans';-inkscape-font-specification:'Droid Sans Bold';letter-spacing:10px;word-spacing:0px;fill:#222222;fill-opacity:1;stroke:none;stroke-width:30;stroke-linecap:butt;stroke-linejoin:miter;stroke-miterlimit:4;stroke-dasharray:none;stroke-opacity:1">
        <path
           id="path4163"
           style="font-style:normal;font-variant:normal;font-weight:bold;font-stretch:normal;font-size:187.5px;font-family:'Droid Sans';-inkscape-font-specification:'Droid Sans Bold';fill:#222222;fill-opacity:1;stroke:#222222;stroke-width:7.49999996;stroke-miterlimit:4;stroke-dasharray:none;stroke-opacity:1;fill-rule:nonzero"
           d="m 523.01923,665.20709 q -6.86646,-6.86645 -6.86646,-16.57104 0,-9.70459 6.86646,-16.57105 6.86645,-6.86645 16.57104,-6.86645 9.70459,0 16.57105,6.86645 6.86645,6.86646 6.86645,16.57105 0,9.70459 -6.86645,16.57104 -6.86646,6.86646 -16.57105,6.86646 -9.70459,0 -16.57104,-6.86646 z m -22.43042,-68.84765 q 0,-5.40162 3.66211,-9.06372 3.75366,-3.75367 9.15527,-3.75367 5.31006,0 9.06372,3.75367 3.75366,3.6621 3.75366,9.06372 0,5.31005 -3.75366,9.15527 -3.75366,3.75366 -9.06372,3.75366 -5.40161,0 -9.15527,-3.75366 -3.66211,-3.84522 -3.66211,-9.15527 z m 52.91748,0 q 0,-5.40162 3.75366,-9.06372 3.75366,-3.75367 9.06372,-3.75367 5.31006,0 9.06372,3.75367 3.84521,3.6621 3.84521,9.06372 0,5.31005 -3.84521,9.15527 -3.75366,3.75366 -9.06372,3.75366 -5.40161,0 -9.15527,-3.75366 -3.66211,-3.84522 -3.66211,-9.15527 z m -96.13037,25.3601 q 0,-34.14917 24.07836,-58.22754 24.07837,-24.16992 58.13599,-24.16992 34.14917,0 58.13599,24.16992 23.98681,24.07837 23.98681,58.22754 0,34.05762 -23.98681,58.04444 -23.98682,23.98681 -58.13599,23.98681 -34.05762,0 -58.13599,-23.98681 -24.07836,-23.98682 -24.07836,-58.04444 z m 12.35961,0 q 0,28.93067 20.41626,49.34693 20.50782,20.3247 49.43848,20.3247 29.02222,0 49.34692,-20.3247 20.41626,-20.41626 20.41626,-49.34693 0,-29.02221 -20.41626,-49.53003 -20.3247,-20.50781 -49.34692,-20.50781 -28.93066,0 -49.43848,20.50781 -20.41626,20.50782 -20.41626,49.53003 z" />
      </g>
      <flowRoot
         style="font-style:normal;font-weight:normal;font-size:40px;line-height:125%;font-family:Sans;letter-spacing:10px;word-spacing:0px;fill:#000000;fill-opacity:1;stroke:none;stroke-width:1px;stroke-linecap:butt;stroke-linejoin:miter;stroke-opacity:1"
         id="flowRoot4736"
         xml:space="preserve"><flowRegion
           id="flowRegion4738"><rect
             y="444.50507"
             x="185.71428"
             height="130"
             width="113.57143"
             id="rect4740" /></flowRegion><flowPara
           id="flowPara4742" /></flowRoot>    </g>
    <rect
       transform="matrix(0.96592583,-0.25881905,0.25881905,0.96592583,0,0)"
       ry="27.274118"
       rx="27.274118"
       y="506.3779"
       x="10.822092"
       height="242.43661"
       width="242.43661"
       id="rect4690"
       style="opacity:1;fill:#222222;fill-opacity:1;stroke:#222222;stroke-width:30;stroke-miterlimit:4;stroke-dasharray:none;stroke-opacity:1" />
    <flowRoot
       style="font-style:normal;font-weight:normal;font-size:40px;line-height:125%;font-family:Sans;letter-spacing:10px;word-spacing:0px;fill:#000000;fill-opacity:1;stroke:none;stroke-width:1px;stroke-linecap:butt;stroke-linejoin:miter;stroke-opacity:1"
       id="flowRoot4692"
       xml:space="preserve"><flowRegion
         id="flowRegion4694"><rect
           y="348.28589"
           x="111.11678"
           height="239.40616"
           width="347.49246"
           id="rect4696" /></flowRegion><flowPara
         id="flowPara4698" /></flowRoot>    <text
       id="text4700"
       y="487.68692"
       x="394.96964"
       style="font-style:normal;font-weight:normal;font-size:40px;line-height:125%;font-family:Sans;letter-spacing:10px;word-spacing:0px;fill:#000000;fill-opacity:1;stroke:none;stroke-width:1px;stroke-linecap:butt;stroke-linejoin:miter;stroke-opacity:1"
       xml:space="preserve"><tspan
         y="487.68692"
         x="394.96964"
         id="tspan4702" /></text>
    <flowRoot
       style="font-style:normal;font-weight:normal;font-size:40px;line-height:125%;font-family:Sans;letter-spacing:10px;word-spacing:0px;fill:#000000;fill-opacity:1;stroke:none;stroke-width:1px;stroke-linecap:butt;stroke-linejoin:miter;stroke-opacity:1"
       id="flowRoot4719"
       xml:space="preserve"><flowRegion
         id="flowRegion4721"><rect
           y="740.93365"
           x="357.14285"
           height="177.14285"
           width="277.14285"
           id="rect4723" /></flowRegion><flowPara
         id="flowPara4725" /></flowRoot>    <g
       id="flowRoot4744"
       style="font-style:normal;font-variant:normal;font-weight:bold;font-stretch:normal;font-size:187.5px;line-height:125%;font-family:'Droid Sans';-inkscape-font-specification:'Droid Sans Bold';letter-spacing:10px;word-spacing:0px;fill:#ffffff;fill-opacity:1;stroke:none;stroke-width:1px;stroke-linecap:butt;stroke-linejoin:miter;stroke-opacity:1"
       transform="matrix(0.96592583,-0.25881905,0.25881905,0.96592583,64.233851,78.176223)">
      <path
         id="path4784"
         d="m 72.742187,557.70614 0,-6.7749 q 0,-4.66919 0.915528,-8.42285 1.00708,-3.84522 2.929687,-7.23267 2.01416,-3.479 5.126953,-6.68335 3.112793,-3.2959 7.507325,-6.7749 3.845215,-3.02124 6.500244,-5.40161 2.655029,-2.38037 4.302976,-4.66919 1.64795,-2.38037 2.38037,-4.94385 0.73243,-2.56348 0.73243,-5.95093 0,-5.2185 -3.570561,-8.60595 -3.479004,-3.38745 -10.71167,-3.38745 -6.317139,0 -13.641358,2.65502 -7.232666,2.65503 -15.014648,6.50025 L 50.861084,477.7806 q 3.936768,-2.28881 8.514404,-4.30297 4.66919,-2.10572 9.613037,-3.66211 5.035401,-1.64795 10.162354,-2.56348 5.126953,-0.91553 10.070801,-0.91553 9.338379,0 16.8457,2.28882 7.50733,2.19727 12.72583,6.50025 5.21851,4.30297 7.96509,10.43701 2.83814,6.13403 2.83814,14.00757 0,5.76782 -1.28174,10.34545 -1.28174,4.48609 -3.84522,8.42286 -2.47192,3.84521 -6.31714,7.50732 -3.75366,3.57056 -8.78906,7.59888 -3.84521,3.02124 -6.31714,5.31006 -2.38037,2.19726 -3.75366,4.21142 -1.373291,2.01416 -1.922607,4.21143 -0.457764,2.10571 -0.457764,5.0354 l 0,5.49316 -24.169922,0 z m -3.02124,31.31104 q 0,-4.30298 1.190186,-7.23267 1.281738,-3.02124 3.479004,-4.85229 2.197265,-1.83106 5.126953,-2.65503 3.02124,-0.82398 6.408691,-0.82398 3.204346,0 6.042481,0.82398 2.929687,0.82397 5.126953,2.65503 2.197265,1.83105 3.479005,4.85229 1.28174,2.92969 1.28174,7.23267 0,4.11987 -1.28174,7.04956 -1.28174,2.92968 -3.479005,4.85229 -2.197266,1.92261 -5.126953,2.74658 -2.838135,0.91553 -6.042481,0.91553 -3.387451,0 -6.408691,-0.91553 -2.929688,-0.82397 -5.126953,-2.74658 -2.197266,-1.92261 -3.479004,-4.85229 -1.190186,-2.92969 -1.190186,-7.04956 z" />
    </g>
  </g>
</svg>
