<?xml version="1.0" standalone="no"?>
<!DOCTYPE svg PUBLIC "-//W3C//DTD SVG 20010904//EN"
 "http://www.w3.org/TR/2001/REC-SVG-20010904/DTD/svg10.dtd">
<svg version="1.0" xmlns="http://www.w3.org/2000/svg"
 width="16.000000pt" height="16.000000pt" viewBox="0 0 16.000000 16.000000"
 preserveAspectRatio="xMidYMid meet">
<metadata>
Created by potrace 1.11, written by Peter Selinger 2001-2013
</metadata>
<g transform="translate(0.000000,16.000000) scale(0.001581,-0.001581)"
fill="#000000" stroke="none">
<path d="M4335 8186 c-38 -7 -180 -43 -315 -79 -349 -94 -1868 -501 -2710
-727 -393 -105 -744 -203 -780 -217 -331 -132 -550 -475 -526 -824 7 -101 -3
-64 351 -1384 152 -566 348 -1300 436 -1630 257 -961 254 -951 369 -1096 180
-225 490 -352 760 -310 41 6 451 112 910 236 459 123 1149 307 1533 410 l697
187 698 -187 c383 -103 1073 -287 1532 -410 459 -124 869 -230 910 -236 270
-42 580 85 760 310 115 145 112 135 369 1096 88 330 284 1064 436 1630 354
1320 344 1283 351 1384 24 349 -195 692 -526 824 -36 14 -387 112 -780 217
-393 105 -1106 297 -1585 425 -1602 430 -1488 402 -1632 391 -181 -15 -349
-83 -480 -193 l-53 -45 -52 45 c-93 78 -215 139 -343 172 -86 22 -246 27 -330
11z m2214 -815 c471 -127 1293 -347 1827 -490 534 -143 982 -265 997 -270 41
-16 108 -82 128 -126 31 -67 24 -129 -40 -369 -33 -122 -198 -736 -366 -1366
-477 -1782 -553 -2063 -564 -2092 -16 -42 -82 -109 -126 -129 -22 -10 -63 -19
-93 -19 -39 0 -357 81 -1160 296 -609 163 -1111 300 -1116 305 -5 5 8 26 30
51 93 101 161 232 195 375 28 115 23 306 -10 428 -12 44 -67 247 -121 450 -55
204 -248 926 -430 1605 -236 879 -329 1244 -325 1265 3 17 17 68 31 115 22 72
33 92 73 130 52 51 92 67 165 69 36 1 295 -65 905 -228z"/>
</g>
</svg>
